<svg width="300" height="300" viewBox="0 0 300 300" fill="none" xmlns="http://www.w3.org/2000/svg">
<circle cx="150" cy="150" r="150" fill="#10101E"/>
<circle cx="149.812" cy="149.812" r="122.062" fill="#00C6C2"/>
<path d="M161.25 159.285C164.818 154.683 172.467 145.183 174.522 144L267 162.243C257.356 200.925 228.614 237.374 207.917 250.5L161.25 159.285Z" fill="#F9F2D7"/>
<path d="M142.5 168.375L154.125 165.375L190.125 257.625C189.575 258.149 171.961 267.498 157.5 266.25L142.5 168.375Z" fill="#F9F2D7"/>
<path d="M138.946 207.498C110.887 242.887 80.0228 260.284 47.2501 215.251C82.4737 213.699 112.911 211.109 138.946 207.498C185.767 148.446 224.773 39.2962 251.791 86.5568C287.564 149.134 264.215 190.126 138.946 207.498Z" fill="#F9F2D7" fill-opacity="0.5"/>
</svg>
